<?xml version="1.0" encoding="UTF-8"?>
<svg version="1.2" baseProfile="tiny-ps" xmlns="http://www.w3.org/2000/svg" viewBox="0 0 512 512">
  <title>GatherOS</title>
  <defs>
    <linearGradient id="bg" x1="0" y1="0" x2="0" y2="1">
      <stop offset="0" stop-color="#3F3F3F"/>
      <stop offset="1" stop-color="#000000"/>
    </linearGradient>
    <linearGradient id="glyph" x1="0" y1="0" x2="0" y2="1">
      <stop offset="0" stop-color="#D8DCDF"/>
      <stop offset="1" stop-color="#ADB2B5"/>
    </linearGradient>
  </defs>
  <rect width="512" height="512" fill="url(#bg)"/>
  <g transform="scale(13.4737) translate(-4,0)">
    <path d="M11.6689 22.9428H17.9518C18.3999 22.9428 18.8695 22.5434 18.8695 21.9496V19.2184C18.8695 18.2522 18.9936 17.5073 19.4902 16.7085C20.0138 15.915 20.7802 15.0676 22.1458 14.9974C23.0635 14.9218 24.008 14.9974 24.8501 15.521C25.9944 16.2173 26.8364 17.3832 26.8364 18.9701C26.8364 20.1144 26.2427 21.3019 25.2711 22.0252C24.6504 22.5218 23.8569 22.9698 22.7612 23.0184H19.7817C19.1879 23.0184 18.8641 23.4178 18.8856 23.936V29.9922C18.8856 30.4618 19.2581 30.8612 19.8033 30.8612H23.1282C24.3697 30.8612 25.7623 30.7101 27.0739 30.2405C30.577 28.999 34.2475 25.8953 35.0193 20.978C35.1165 20.3573 35.1435 19.8121 35.1435 19.1914C35.1705 15.2457 33.2057 11.4673 30.3503 9.50796C28.4881 8.19093 26.3021 7.19776 23.5223 7.07361H19.7979C19.1501 7.07361 18.8802 7.52162 18.8802 7.99121C18.8802 9.08155 19.0206 10.269 18.8263 11.3378C18.4754 13.3025 16.8507 14.965 14.805 14.965H11.5448C11.1238 14.965 10.8269 15.3645 10.8269 15.8341V21.9658C10.8755 22.4138 11.1238 22.932 11.6689 22.932V22.9428Z" fill="url(#glyph)"/>
  </g>
</svg>
