<svg width="135" height="34" viewBox="0 0 135 34" fill="none" xmlns="http://www.w3.org/2000/svg">
<g clip-path="url(#clip0_57_21)">
<g filter="url(#filter0_i_57_21)">
<rect width="34.03" height="34.03" rx="8.83896" fill="url(#paint0_linear_57_21)"/>
</g>
<g filter="url(#filter1_i_57_21)">
<path d="M6.86833 20.546H12.4948C12.896 20.546 13.3166 20.1883 13.3166 19.6566V17.2107C13.3166 16.3455 13.4278 15.6784 13.8725 14.963C14.3413 14.2524 15.0277 13.4935 16.2507 13.4307C17.0724 13.363 17.9183 13.4307 18.6724 13.8996C19.6972 14.5231 20.4512 15.5672 20.4512 16.9883C20.4512 18.0131 19.9195 19.0765 19.0494 19.7243C18.4935 20.169 17.783 20.5702 16.8017 20.6137H14.1335C13.6018 20.6137 13.3117 20.9714 13.3311 21.4354V26.8589C13.3311 27.2794 13.6646 27.6371 14.1528 27.6371H17.1304C18.2422 27.6371 19.4893 27.5018 20.6639 27.0813C23.801 25.9695 27.088 23.1901 27.7792 18.7865C27.8662 18.2306 27.8904 17.7424 27.8904 17.1865C27.9146 13.653 26.1551 10.2694 23.598 8.51475C21.9304 7.33531 19.9727 6.44589 17.4833 6.33472H14.148C13.5679 6.33472 13.3262 6.73592 13.3262 7.15646C13.3262 8.13288 13.4519 9.19631 13.2779 10.1534C12.9637 11.9129 11.5087 13.4017 9.67675 13.4017H6.75715C6.38012 13.4017 6.11426 13.7594 6.11426 14.1799V19.6711C6.15776 20.0723 6.38012 20.5363 6.86833 20.5363V20.546Z" fill="url(#paint1_linear_57_21)"/>
</g>
<mask id="mask0_57_21" style="mask-type:alpha" maskUnits="userSpaceOnUse" x="6" y="6" width="22" height="22">
<path d="M6.86833 20.546H12.4948C12.896 20.546 13.3166 20.1883 13.3166 19.6566V17.2107C13.3166 16.3455 13.4278 15.6784 13.8725 14.963C14.3413 14.2524 15.0277 13.4935 16.2507 13.4307C17.0724 13.363 17.9183 13.4307 18.6724 13.8996C19.6972 14.5231 20.4512 15.5672 20.4512 16.9883C20.4512 18.0131 19.9195 19.0765 19.0494 19.7243C18.4935 20.169 17.783 20.5702 16.8017 20.6137H14.1335C13.6018 20.6137 13.3117 20.9714 13.3311 21.4354V26.8589C13.3311 27.2794 13.6646 27.6371 14.1528 27.6371H17.1304C18.2422 27.6371 19.4893 27.5018 20.6639 27.0813C23.801 25.9695 27.088 23.1901 27.7792 18.7865C27.8662 18.2306 27.8904 17.7424 27.8904 17.1865C27.9146 13.653 26.1551 10.2694 23.598 8.51475C21.9304 7.33531 19.9727 6.44589 17.4833 6.33472H14.148C13.5679 6.33472 13.3262 6.73592 13.3262 7.15646C13.3262 8.13288 13.4519 9.19631 13.2779 10.1534C12.9637 11.9129 11.5087 13.4017 9.67675 13.4017H6.75715C6.38012 13.4017 6.11426 13.7594 6.11426 14.1799V19.6711C6.15776 20.0723 6.38012 20.5363 6.86833 20.5363V20.546Z" fill="#ADB2B5"/>
</mask>
<g mask="url(#mask0_57_21)">
<g filter="url(#filter2_f_57_21)">
<path d="M31.1178 26.3296L13.386 21.5187L11.5952 22.7581C12.9834 26.9164 15.9798 35.8619 16.8606 38.3782C17.7414 40.8945 22.7089 36.6628 25.0825 34.2324L31.1178 26.3296Z" fill="#85AABC"/>
</g>
<g filter="url(#filter3_f_57_21)">
<path d="M43.026 12.0591L25.2942 7.24823L20.459 6.26465C29.8025 14.8986 27.888 21.5915 28.7688 24.1078C29.6496 26.6241 34.617 22.3924 36.9906 19.962L43.026 12.0591Z" fill="#8A71B0"/>
</g>
<g filter="url(#filter4_f_57_21)">
<path d="M43.6178 22.3094L25.886 17.4985L24.0952 18.738C25.4834 22.8962 28.4798 31.8418 29.3606 34.3581C30.2414 36.8744 35.2089 32.6427 37.5825 30.2123L43.6178 22.3094Z" fill="#BBB58D"/>
</g>
<g filter="url(#filter5_f_57_21)">
<path d="M13.0868 20.5364L6.22696 13.1246H4.96537C4.25574 15.3455 2.73396 20.1264 2.32395 21.4826C1.91394 22.8388 5.67502 22.4945 7.60681 22.1528L13.0868 20.5364Z" fill="#85AABC"/>
</g>
</g>
<path d="M129.058 24.2971C124.878 24.2971 122.56 22.2765 122.54 18.6513H125.373C125.393 20.7511 126.522 21.9595 129.058 21.9595C131.019 21.9595 132.306 21.1671 132.306 19.721C132.306 18.6909 131.573 17.8985 129.771 17.641L127.572 17.3042C124.759 16.8684 122.897 15.7392 122.897 13.0648C122.897 10.5094 124.937 8.64722 128.542 8.64722C132.604 8.64722 134.525 10.7075 134.604 13.778H131.811C131.752 12.0149 130.662 10.9848 128.542 10.9848C126.542 10.9848 125.63 11.9159 125.63 12.9856C125.63 14.1346 126.581 14.6893 128.463 14.9468L130.504 15.2439C133.436 15.6401 135.159 17.0467 135.159 19.6418C135.159 22.4152 132.861 24.2971 129.058 24.2971Z" fill="black"/>
<path d="M114 24.2971C109.919 24.2971 106.413 21.4049 106.413 16.4722C106.413 11.5395 109.919 8.64722 114 8.64722C118.061 8.64722 121.568 11.5395 121.568 16.4722C121.568 21.4049 118.061 24.2971 114 24.2971ZM114 21.7812C116.576 21.7812 118.656 19.9389 118.656 16.4722C118.656 13.0054 116.576 11.1631 114 11.1631C111.425 11.1631 109.385 13.0054 109.345 16.4722C109.305 19.9587 111.425 21.7812 114 21.7812Z" fill="black"/>
<path d="M99.5791 24V13.3026H102.075V14.7686C102.59 13.679 103.402 13.1442 104.67 13.1442H105.958V15.5412H103.977C102.749 15.5412 102.174 16.2147 102.174 17.3439V24H99.5791Z" fill="black"/>
<path d="M93.5164 24.2972C90.3666 24.2972 88.0488 22.2171 88.0488 18.6513C88.0488 15.2638 90.327 13.0055 93.3975 13.0055C96.6067 13.0055 99.0434 15.244 98.6076 19.4834H90.7034C90.9015 21.2663 91.991 22.1577 93.4371 22.1577C94.6059 22.1577 95.4578 21.7615 95.8143 20.7116H98.4887C97.934 22.8709 96.1313 24.2972 93.5164 24.2972ZM90.7034 17.6014H96.0521C95.9332 15.8383 94.705 15.1648 93.3975 15.1648C92.1099 15.1648 90.9213 15.8185 90.7034 17.6014Z" fill="black"/>
<path d="M77.1777 24.0001V8.94446H79.753V14.7092C80.4662 13.6394 81.7142 13.0055 83.1802 13.0055C85.6762 13.0055 87.2214 14.729 87.2214 17.2845V24.0001H84.6461V17.9778C84.6461 16.3336 83.7943 15.2638 82.3085 15.2638C80.7039 15.2638 79.753 16.5317 79.753 18.3938V24.0001H77.1777Z" fill="black"/>
<path d="M74.2332 24C72.1531 24 71.0438 23.2472 71.0438 21.187V15.4025H69.3203V13.3026H70.6476C70.9844 13.3026 71.1626 13.0847 71.1626 12.6291V10.5886H73.6191V13.3026H76.135V15.4025H73.6191V21.0483C73.6191 21.603 73.8568 21.8209 74.4115 21.8209H76.2538V24H74.2332Z" fill="black"/>
<path d="M63.0957 24.2972C60.6788 24.2972 59.2129 22.9897 59.2129 21.0285C59.2129 18.8494 60.8175 17.7401 63.2938 17.4826L65.1163 17.2845C66.0672 17.1854 66.5228 16.8486 66.5228 16.2345C66.5228 15.4817 65.77 14.9667 64.5022 14.9667C63.0957 14.9667 62.2042 15.5412 62.1646 16.809H59.6091C59.6091 14.6101 61.4118 13.0055 64.3239 13.0055C67.2756 13.0055 69.0387 14.313 69.0387 16.8486V24H66.6218V22.3558C66.0672 23.3661 64.8389 24.2972 63.0957 24.2972ZM63.69 22.3162C65.3144 22.3162 66.4832 21.1474 66.4832 19.5032V18.6315C66.2851 18.8494 65.7106 19.0475 64.9182 19.1466L63.6701 19.3249C62.5806 19.4636 61.8476 19.939 61.8476 20.8899C61.8476 21.7021 62.4617 22.3162 63.69 22.3162Z" fill="black"/>
<path d="M50.7255 24.2971C46.3277 24.2971 43.6533 20.7907 43.6533 16.4524C43.6533 11.6385 46.7239 8.64722 51.1217 8.64722C54.9648 8.64722 57.6194 10.7867 58.0156 14.2931H55.0441C54.6677 12.1536 53.281 11.1631 51.1019 11.1631C48.2889 11.1631 46.5852 13.0847 46.5852 16.4524C46.5852 19.8201 48.3087 21.7812 51.1217 21.7812C53.6772 21.7812 55.2422 20.0974 55.2422 18.6711C55.2422 18.3937 55.1431 18.2154 54.7865 18.2154H50.9236V15.8581H55.8761C57.342 15.8581 58.1939 16.6306 58.1939 18.1362V24H55.7374V21.5831C54.9846 23.0887 53.3404 24.2971 50.7255 24.2971Z" fill="black"/>
</g>
<defs>
<filter id="filter0_i_57_21" x="0" y="0" width="34.2512" height="34.1773" filterUnits="userSpaceOnUse" color-interpolation-filters="sRGB">
<feFlood flood-opacity="0" result="BackgroundImageFix"/>
<feBlend mode="normal" in="SourceGraphic" in2="BackgroundImageFix" result="shape"/>
<feColorMatrix in="SourceAlpha" type="matrix" values="0 0 0 0 0 0 0 0 0 0 0 0 0 0 0 0 0 0 127 0" result="hardAlpha"/>
<feOffset dx="0.220974" dy="0.147316"/>
<feGaussianBlur stdDeviation="0.147316"/>
<feComposite in2="hardAlpha" operator="arithmetic" k2="-1" k3="1"/>
<feColorMatrix type="matrix" values="0 0 0 0 1 0 0 0 0 1 0 0 0 0 1 0 0 0 0.25 0"/>
<feBlend mode="normal" in2="shape" result="effect1_innerShadow_57_21"/>
</filter>
<filter id="filter1_i_57_21" x="6.11426" y="6.33472" width="21.7764" height="21.8543" filterUnits="userSpaceOnUse" color-interpolation-filters="sRGB">
<feFlood flood-opacity="0" result="BackgroundImageFix"/>
<feBlend mode="normal" in="SourceGraphic" in2="BackgroundImageFix" result="shape"/>
<feColorMatrix in="SourceAlpha" type="matrix" values="0 0 0 0 0 0 0 0 0 0 0 0 0 0 0 0 0 0 127 0" result="hardAlpha"/>
<feOffset dy="0.551941"/>
<feGaussianBlur stdDeviation="0.275971"/>
<feComposite in2="hardAlpha" operator="arithmetic" k2="-1" k3="1"/>
<feColorMatrix type="matrix" values="0 0 0 0 1 0 0 0 0 1 0 0 0 0 1 0 0 0 1 0"/>
<feBlend mode="normal" in2="shape" result="effect1_innerShadow_57_21"/>
</filter>
<filter id="filter2_f_57_21" x="9.46581" y="19.3898" width="23.7813" height="21.8895" filterUnits="userSpaceOnUse" color-interpolation-filters="sRGB">
<feFlood flood-opacity="0" result="BackgroundImageFix"/>
<feBlend mode="normal" in="SourceGraphic" in2="BackgroundImageFix" result="shape"/>
<feGaussianBlur stdDeviation="1.06446" result="effect1_foregroundBlur_57_21"/>
</filter>
<filter id="filter3_f_57_21" x="18.3301" y="4.13573" width="26.8252" height="22.8732" filterUnits="userSpaceOnUse" color-interpolation-filters="sRGB">
<feFlood flood-opacity="0" result="BackgroundImageFix"/>
<feBlend mode="normal" in="SourceGraphic" in2="BackgroundImageFix" result="shape"/>
<feGaussianBlur stdDeviation="1.06446" result="effect1_foregroundBlur_57_21"/>
</filter>
<filter id="filter4_f_57_21" x="21.9658" y="15.3696" width="23.7813" height="21.8895" filterUnits="userSpaceOnUse" color-interpolation-filters="sRGB">
<feFlood flood-opacity="0" result="BackgroundImageFix"/>
<feBlend mode="normal" in="SourceGraphic" in2="BackgroundImageFix" result="shape"/>
<feGaussianBlur stdDeviation="1.06446" result="effect1_foregroundBlur_57_21"/>
</filter>
<filter id="filter5_f_57_21" x="0.164053" y="10.9957" width="15.0518" height="13.5936" filterUnits="userSpaceOnUse" color-interpolation-filters="sRGB">
<feFlood flood-opacity="0" result="BackgroundImageFix"/>
<feBlend mode="normal" in="SourceGraphic" in2="BackgroundImageFix" result="shape"/>
<feGaussianBlur stdDeviation="1.06446" result="effect1_foregroundBlur_57_21"/>
</filter>
<linearGradient id="paint0_linear_57_21" x1="17.015" y1="0" x2="17.015" y2="34.03" gradientUnits="userSpaceOnUse">
<stop stop-color="#3F3F3F"/>
<stop offset="1"/>
</linearGradient>
<linearGradient id="paint1_linear_57_21" x1="17.0024" y1="6.33472" x2="17.0024" y2="27.6371" gradientUnits="userSpaceOnUse">
<stop stop-color="#ADB2B5"/>
<stop offset="1" stop-color="#ADB2B5"/>
</linearGradient>
<clipPath id="clip0_57_21">
<rect width="135" height="34" fill="white"/>
</clipPath>
</defs>
</svg>
